# This file uses centimeters as units for non-parametric coordinates.

v 0.000000 -0.000000 0.099432
v 0.353691 0.000000 0.000000
v 0.000000 0.000000 -0.099432
v 0.000000 -0.099432 -0.000000
v 0.353691 0.000000 0.000000
v 0.000000 0.099432 0.000000
vt 0.737101 0.121181
vt 0.505261 0.946723
vt 0.273421 0.121181
vt 0.737101 0.121181
vt 0.505261 0.946723
vt 0.273421 0.121181
vn 0.000000 1.000000 0.000000
vn 0.000000 1.000000 0.000000
vn 0.000000 1.000000 0.000000
vn 0.000000 -0.000000 1.000000
vn 0.000000 -0.000000 1.000000
vn 0.000000 -0.000000 1.000000
s off
f 1/1/1 2/2/2 3/3/3
f 4/4/4 5/5/5 6/6/6
